<svg xmlns="http://www.w3.org/2000/svg" width="937" height="856" viewBox="0 0 937 856">
<rect width="937" height="856" fill="#0d1117"/>
<rect x="0" y="0" width="937" height="856" fill="none" stroke="#30363d" stroke-width="2"/>
<line x1="115.6" y1="607.8" x2="115.6" y2="641.8" stroke="#ff6b6b" stroke-width="4.5" opacity="0.92" />
<line x1="374.0" y1="662.2" x2="374.0" y2="767.6" stroke="#51cf66" stroke-width="4.5" opacity="0.92" />
<line x1="299.2" y1="427.6" x2="115.6" y2="427.6" stroke="#ffa94d" stroke-width="2.0" opacity="0.92" stroke-dasharray="7,4"/>
<line x1="115.6" y1="431.0" x2="115.6" y2="495.6" stroke="#ffa94d" stroke-width="2.0" opacity="0.92" stroke-dasharray="7,4"/>
<line x1="112.2" y1="495.6" x2="102.0" y2="495.6" stroke="#ffa94d" stroke-width="2.0" opacity="0.92" stroke-dasharray="7,4"/>
<line x1="299.2" y1="393.6" x2="81.6" y2="393.6" stroke="#4dabf7" stroke-width="2.0" opacity="0.92" />
<line x1="81.6" y1="397.0" x2="81.6" y2="529.6" stroke="#4dabf7" stroke-width="2.0" opacity="0.92" />
<line x1="78.2" y1="529.6" x2="68.0" y2="529.6" stroke="#4dabf7" stroke-width="2.0" opacity="0.92" />
<line x1="299.2" y1="359.6" x2="81.6" y2="359.6" stroke="#ffa94d" stroke-width="2.0" opacity="0.92" stroke-dasharray="7,4"/>
<line x1="81.6" y1="363.0" x2="81.6" y2="495.6" stroke="#ffa94d" stroke-width="2.0" opacity="0.92" stroke-dasharray="7,4"/>
<line x1="78.2" y1="495.6" x2="68.0" y2="495.6" stroke="#ffa94d" stroke-width="2.0" opacity="0.92" stroke-dasharray="7,4"/>
<line x1="299.2" y1="325.6" x2="102.0" y2="325.6" stroke="#4dabf7" stroke-width="2.0" opacity="0.92" />
<line x1="102.0" y1="329.0" x2="102.0" y2="380.0" stroke="#4dabf7" stroke-width="2.0" opacity="0.92" />
<line x1="102.0" y1="380.0" x2="102.0" y2="427.6" stroke="#ffa94d" stroke-width="2.0" opacity="0.92" stroke-dasharray="7,4"/>
<line x1="299.2" y1="291.6" x2="54.4" y2="291.6" stroke="#ffa94d" stroke-width="2.0" opacity="0.92" stroke-dasharray="7,4"/>
<line x1="54.4" y1="295.0" x2="54.4" y2="461.6" stroke="#ffa94d" stroke-width="2.0" opacity="0.92" stroke-dasharray="7,4"/>
<line x1="57.8" y1="461.6" x2="68.0" y2="461.6" stroke="#ffa94d" stroke-width="2.0" opacity="0.92" stroke-dasharray="7,4"/>
<line x1="299.2" y1="257.6" x2="68.0" y2="257.6" stroke="#4dabf7" stroke-width="2.0" opacity="0.92" />
<line x1="68.0" y1="261.0" x2="68.0" y2="427.6" stroke="#4dabf7" stroke-width="2.0" opacity="0.92" />
<line x1="639.2" y1="427.6" x2="312.8" y2="427.6" stroke="#ffa94d" stroke-width="2.0" opacity="0.92" stroke-dasharray="7,4"/>
<line x1="312.8" y1="431.0" x2="312.8" y2="618.0" stroke="#ffa94d" stroke-width="2.0" opacity="0.92" stroke-dasharray="7,4"/>
<line x1="309.4" y1="618.0" x2="102.0" y2="618.0" stroke="#ffa94d" stroke-width="2.0" opacity="0.92" stroke-dasharray="7,4"/>
<line x1="102.0" y1="621.4" x2="102.0" y2="631.6" stroke="#ffa94d" stroke-width="2.0" opacity="0.92" stroke-dasharray="7,4"/>
<line x1="639.2" y1="393.6" x2="312.8" y2="393.6" stroke="#4dabf7" stroke-width="2.0" opacity="0.92" />
<line x1="312.8" y1="397.0" x2="312.8" y2="652.0" stroke="#4dabf7" stroke-width="2.0" opacity="0.92" />
<line x1="309.4" y1="652.0" x2="68.0" y2="652.0" stroke="#4dabf7" stroke-width="2.0" opacity="0.92" />
<line x1="68.0" y1="655.4" x2="68.0" y2="665.6" stroke="#4dabf7" stroke-width="2.0" opacity="0.92" />
<line x1="639.2" y1="359.6" x2="326.4" y2="359.6" stroke="#ffa94d" stroke-width="2.0" opacity="0.92" stroke-dasharray="7,4"/>
<line x1="326.4" y1="363.0" x2="326.4" y2="414.0" stroke="#ffa94d" stroke-width="2.0" opacity="0.92" stroke-dasharray="7,4"/>
<line x1="326.4" y1="414.0" x2="326.4" y2="645.2" stroke="#4dabf7" stroke-width="2.0" opacity="0.92" />
<line x1="326.4" y1="645.2" x2="68.0" y2="645.2" stroke="#ffa94d" stroke-width="2.0" opacity="0.92" stroke-dasharray="7,4"/>
<line x1="68.0" y1="641.8" x2="68.0" y2="631.6" stroke="#ffa94d" stroke-width="2.0" opacity="0.92" stroke-dasharray="7,4"/>
<line x1="639.2" y1="325.6" x2="312.8" y2="325.6" stroke="#ffa94d" stroke-width="2.0" opacity="0.92" stroke-dasharray="7,4"/>
<line x1="312.8" y1="329.0" x2="312.8" y2="414.0" stroke="#ffa94d" stroke-width="2.0" opacity="0.92" stroke-dasharray="7,4"/>
<line x1="309.4" y1="414.0" x2="115.6" y2="414.0" stroke="#ffa94d" stroke-width="2.0" opacity="0.92" stroke-dasharray="7,4"/>
<line x1="115.6" y1="414.0" x2="115.6" y2="563.6" stroke="#4dabf7" stroke-width="2.0" opacity="0.92" />
<line x1="112.2" y1="563.6" x2="102.0" y2="563.6" stroke="#4dabf7" stroke-width="2.0" opacity="0.92" />
<line x1="639.2" y1="291.6" x2="312.8" y2="291.6" stroke="#ffa94d" stroke-width="2.0" opacity="0.92" stroke-dasharray="7,4"/>
<line x1="312.8" y1="288.2" x2="312.8" y2="278.0" stroke="#ffa94d" stroke-width="2.0" opacity="0.92" stroke-dasharray="7,4"/>
<line x1="309.4" y1="278.0" x2="54.4" y2="278.0" stroke="#ffa94d" stroke-width="2.0" opacity="0.92" stroke-dasharray="7,4"/>
<line x1="54.4" y1="278.0" x2="54.4" y2="597.6" stroke="#4dabf7" stroke-width="2.0" opacity="0.92" />
<line x1="57.8" y1="597.6" x2="68.0" y2="597.6" stroke="#4dabf7" stroke-width="2.0" opacity="0.92" />
<line x1="639.2" y1="257.6" x2="312.8" y2="257.6" stroke="#ffa94d" stroke-width="2.0" opacity="0.92" stroke-dasharray="7,4"/>
<line x1="312.8" y1="254.2" x2="312.8" y2="244.0" stroke="#ffa94d" stroke-width="2.0" opacity="0.92" stroke-dasharray="7,4"/>
<line x1="309.4" y1="244.0" x2="40.8" y2="244.0" stroke="#ffa94d" stroke-width="2.0" opacity="0.92" stroke-dasharray="7,4"/>
<line x1="40.8" y1="247.4" x2="40.8" y2="563.6" stroke="#ffa94d" stroke-width="2.0" opacity="0.92" stroke-dasharray="7,4"/>
<line x1="44.2" y1="563.6" x2="68.0" y2="563.6" stroke="#ffa94d" stroke-width="2.0" opacity="0.92" stroke-dasharray="7,4"/>
<line x1="326.4" y1="754.0" x2="326.4" y2="658.8" stroke="#ffa94d" stroke-width="2.0" opacity="0.92" stroke-dasharray="7,4"/>
<line x1="329.8" y1="658.8" x2="632.4" y2="658.8" stroke="#ffa94d" stroke-width="2.0" opacity="0.92" stroke-dasharray="7,4"/>
<line x1="632.4" y1="655.4" x2="632.4" y2="631.6" stroke="#ffa94d" stroke-width="2.0" opacity="0.92" stroke-dasharray="7,4"/>
<line x1="635.8" y1="631.6" x2="639.2" y2="631.6" stroke="#ffa94d" stroke-width="2.0" opacity="0.92" stroke-dasharray="7,4"/>
<line x1="224.4" y1="754.0" x2="224.4" y2="679.2" stroke="#4dabf7" stroke-width="2.0" opacity="0.92" />
<line x1="227.8" y1="679.2" x2="625.6" y2="679.2" stroke="#4dabf7" stroke-width="2.0" opacity="0.92" />
<line x1="625.6" y1="675.8" x2="625.6" y2="529.6" stroke="#4dabf7" stroke-width="2.0" opacity="0.92" />
<line x1="629.0" y1="529.6" x2="639.2" y2="529.6" stroke="#4dabf7" stroke-width="2.0" opacity="0.92" />
<line x1="360.4" y1="754.0" x2="360.4" y2="767.6" stroke="#ff6b6b" stroke-width="4.5" opacity="0.92" />
<line x1="258.4" y1="764.2" x2="258.4" y2="754.0" stroke="#ff6b6b" stroke-width="4.5" opacity="0.92" />
<line x1="312.8" y1="767.6" x2="312.8" y2="692.8" stroke="#ff6b6b" stroke-width="4.5" opacity="0.92" />
<line x1="357.0" y1="767.6" x2="312.8" y2="767.6" stroke="#ff6b6b" stroke-width="4.5" opacity="0.92" />
<line x1="312.8" y1="767.6" x2="258.4" y2="767.6" stroke="#ff6b6b" stroke-width="4.5" opacity="0.92" />
<line x1="312.8" y1="692.8" x2="312.8" y2="665.6" stroke="#ff6b6b" stroke-width="4.5" opacity="0.92" />
<line x1="312.8" y1="665.6" x2="340.0" y2="665.6" stroke="#ff6b6b" stroke-width="4.5" opacity="0.92" />
<line x1="340.0" y1="662.2" x2="340.0" y2="407.2" stroke="#ff6b6b" stroke-width="4.5" opacity="0.92" />
<line x1="340.0" y1="407.2" x2="340.0" y2="373.2" stroke="#ff6b6b" stroke-width="4.5" opacity="0.92" />
<line x1="340.0" y1="373.2" x2="340.0" y2="210.0" stroke="#ff6b6b" stroke-width="4.5" opacity="0.92" />
<line x1="340.0" y1="210.0" x2="340.0" y2="189.6" stroke="#ff6b6b" stroke-width="4.5" opacity="0.92" />
<line x1="350.2" y1="210.0" x2="340.0" y2="210.0" stroke="#ff6b6b" stroke-width="4.5" opacity="0.92" />
<line x1="340.0" y1="210.0" x2="292.4" y2="210.0" stroke="#ff6b6b" stroke-width="4.5" opacity="0.92" />
<line x1="333.2" y1="189.6" x2="333.2" y2="111.4" stroke="#ff6b6b" stroke-width="4.5" opacity="0.92" />
<line x1="336.6" y1="189.6" x2="333.2" y2="189.6" stroke="#ff6b6b" stroke-width="4.5" opacity="0.92" />
<line x1="333.2" y1="189.6" x2="298.5" y2="189.6" stroke="#ff6b6b" stroke-width="4.5" opacity="0.92" />
<line x1="102.0" y1="461.6" x2="102.0" y2="488.8" stroke="#ff6b6b" stroke-width="4.5" opacity="0.92" />
<line x1="98.6" y1="488.8" x2="95.2" y2="488.8" stroke="#ff6b6b" stroke-width="4.5" opacity="0.92" />
<line x1="95.2" y1="492.2" x2="95.2" y2="529.6" stroke="#ff6b6b" stroke-width="4.5" opacity="0.92" />
<line x1="98.6" y1="529.6" x2="102.0" y2="529.6" stroke="#ff6b6b" stroke-width="4.5" opacity="0.92" />
<line x1="102.0" y1="529.6" x2="115.6" y2="529.6" stroke="#ff6b6b" stroke-width="4.5" opacity="0.92" />
<line x1="115.6" y1="533.0" x2="115.6" y2="597.6" stroke="#ff6b6b" stroke-width="4.5" opacity="0.92" />
<line x1="112.2" y1="597.6" x2="102.0" y2="597.6" stroke="#ff6b6b" stroke-width="4.5" opacity="0.92" />
<line x1="102.0" y1="597.6" x2="81.6" y2="597.6" stroke="#ff6b6b" stroke-width="4.5" opacity="0.92" />
<line x1="81.6" y1="601.0" x2="81.6" y2="618.0" stroke="#ff6b6b" stroke-width="4.5" opacity="0.92" />
<line x1="78.2" y1="618.0" x2="54.4" y2="618.0" stroke="#ff6b6b" stroke-width="4.5" opacity="0.92" />
<line x1="54.4" y1="621.4" x2="54.4" y2="679.2" stroke="#ff6b6b" stroke-width="4.5" opacity="0.92" />
<line x1="57.8" y1="679.2" x2="102.0" y2="679.2" stroke="#ff6b6b" stroke-width="4.5" opacity="0.92" />
<line x1="102.0" y1="675.8" x2="102.0" y2="665.6" stroke="#ff6b6b" stroke-width="4.5" opacity="0.92" />
<line x1="54.4" y1="618.0" x2="54.4" y2="577.2" stroke="#ff6b6b" stroke-width="4.5" opacity="0.92" />
<line x1="51.0" y1="577.2" x2="40.8" y2="577.2" stroke="#ff6b6b" stroke-width="4.5" opacity="0.92" />
<line x1="40.8" y1="577.2" x2="40.8" y2="125.0" stroke="#ff6b6b" stroke-width="4.5" opacity="0.92" />
<line x1="299.2" y1="121.6" x2="299.2" y2="111.4" stroke="#ff6b6b" stroke-width="4.5" opacity="0.92" />
<line x1="319.6" y1="125.0" x2="44.2" y2="125.0" stroke="#ff6b6b" stroke-width="4.5" opacity="0.92" />
<line x1="319.6" y1="125.0" x2="367.2" y2="125.0" stroke="#ff6b6b" stroke-width="4.5" opacity="0.92" />
<line x1="367.2" y1="121.6" x2="367.2" y2="111.4" stroke="#ff6b6b" stroke-width="4.5" opacity="0.92" />
<line x1="180.2" y1="46.8" x2="265.2" y2="46.8" stroke="#51cf66" stroke-width="4.5" opacity="0.92" />
<line x1="265.2" y1="50.2" x2="265.2" y2="111.4" stroke="#51cf66" stroke-width="4.5" opacity="0.92" />
<line x1="265.2" y1="111.4" x2="265.2" y2="223.6" stroke="#51cf66" stroke-width="4.5" opacity="0.92" />
<line x1="268.6" y1="223.6" x2="298.5" y2="223.6" stroke="#51cf66" stroke-width="4.5" opacity="0.92" />
<line x1="638.5" y1="223.6" x2="298.5" y2="223.6" stroke="#51cf66" stroke-width="4.5" opacity="0.92" />
<line x1="809.2" y1="220.2" x2="809.2" y2="46.8" stroke="#51cf66" stroke-width="4.5" opacity="0.92" />
<line x1="652.8" y1="223.6" x2="652.8" y2="767.6" stroke="#51cf66" stroke-width="4.5" opacity="0.92" />
<line x1="809.2" y1="223.6" x2="652.8" y2="223.6" stroke="#51cf66" stroke-width="4.5" opacity="0.92" />
<line x1="652.8" y1="223.6" x2="638.5" y2="223.6" stroke="#51cf66" stroke-width="4.5" opacity="0.92" />
<line x1="292.4" y1="764.2" x2="292.4" y2="754.0" stroke="#51cf66" stroke-width="4.5" opacity="0.92" />
<line x1="394.4" y1="767.6" x2="394.4" y2="754.0" stroke="#51cf66" stroke-width="4.5" opacity="0.92" />
<line x1="649.4" y1="767.6" x2="394.4" y2="767.6" stroke="#51cf66" stroke-width="4.5" opacity="0.92" />
<line x1="394.4" y1="767.6" x2="374.0" y2="767.6" stroke="#51cf66" stroke-width="4.5" opacity="0.92" />
<line x1="180.2" y1="767.6" x2="374.0" y2="767.6" stroke="#51cf66" stroke-width="4.5" opacity="0.92" />
<line x1="180.2" y1="771.0" x2="180.2" y2="808.4" stroke="#51cf66" stroke-width="4.5" opacity="0.92" />
<line x1="652.8" y1="767.6" x2="809.2" y2="767.6" stroke="#51cf66" stroke-width="4.5" opacity="0.92" />
<line x1="809.2" y1="771.0" x2="809.2" y2="808.4" stroke="#51cf66" stroke-width="4.5" opacity="0.92" />
<circle cx="180.5" cy="46.1" r="2.4" fill="#868e96"/>
<circle cx="809.9" cy="46.1" r="2.4" fill="#868e96"/>
<circle cx="180.5" cy="809.1" r="2.4" fill="#868e96"/>
<circle cx="809.9" cy="809.1" r="2.4" fill="#868e96"/>
<circle cx="869.0" cy="427.6" r="2.4" fill="#868e96"/>
<circle cx="869.0" cy="461.6" r="2.4" fill="#868e96"/>
<circle cx="869.0" cy="495.6" r="2.4" fill="#868e96"/>
<circle cx="869.0" cy="529.6" r="2.4" fill="#868e96"/>
<circle cx="869.0" cy="563.6" r="2.4" fill="#868e96"/>
<circle cx="869.0" cy="597.6" r="2.4" fill="#868e96"/>
<circle cx="869.0" cy="631.6" r="2.4" fill="#868e96"/>
<circle cx="869.0" cy="665.6" r="2.4" fill="#868e96"/>
<circle cx="263.5" cy="113.1" r="2.4" fill="#868e96"/>
<circle cx="229.5" cy="113.1" r="2.4" fill="#868e96"/>
<circle cx="392.7" cy="755.7" r="2.4" fill="#868e96"/>
<circle cx="358.7" cy="755.7" r="2.4" fill="#868e96"/>
<circle cx="324.7" cy="755.7" r="2.4" fill="#868e96"/>
<circle cx="290.7" cy="755.7" r="2.4" fill="#868e96"/>
<circle cx="256.7" cy="755.7" r="2.4" fill="#868e96"/>
<circle cx="222.7" cy="755.7" r="2.4" fill="#868e96"/>
<circle cx="298.5" cy="665.6" r="2.4" fill="#868e96"/>
<circle cx="298.5" cy="631.6" r="2.4" fill="#868e96"/>
<circle cx="298.5" cy="597.6" r="2.4" fill="#868e96"/>
<circle cx="298.5" cy="563.6" r="2.4" fill="#868e96"/>
<circle cx="298.5" cy="529.6" r="2.4" fill="#868e96"/>
<circle cx="298.5" cy="495.6" r="2.4" fill="#868e96"/>
<circle cx="298.5" cy="461.6" r="2.4" fill="#868e96"/>
<circle cx="298.5" cy="427.6" r="2.4" fill="#868e96"/>
<circle cx="298.5" cy="393.6" r="2.4" fill="#868e96"/>
<circle cx="298.5" cy="359.6" r="2.4" fill="#868e96"/>
<circle cx="298.5" cy="325.6" r="2.4" fill="#868e96"/>
<circle cx="298.5" cy="291.6" r="2.4" fill="#868e96"/>
<circle cx="298.5" cy="257.6" r="2.4" fill="#868e96"/>
<circle cx="298.5" cy="223.6" r="2.4" fill="#868e96"/>
<circle cx="298.5" cy="189.6" r="2.4" fill="#868e96"/>
<circle cx="638.5" cy="665.6" r="2.4" fill="#868e96"/>
<circle cx="638.5" cy="631.6" r="2.4" fill="#868e96"/>
<circle cx="638.5" cy="597.6" r="2.4" fill="#868e96"/>
<circle cx="638.5" cy="563.6" r="2.4" fill="#868e96"/>
<circle cx="638.5" cy="529.6" r="2.4" fill="#868e96"/>
<circle cx="638.5" cy="495.6" r="2.4" fill="#868e96"/>
<circle cx="638.5" cy="461.6" r="2.4" fill="#868e96"/>
<circle cx="638.5" cy="427.6" r="2.4" fill="#868e96"/>
<circle cx="638.5" cy="393.6" r="2.4" fill="#868e96"/>
<circle cx="638.5" cy="359.6" r="2.4" fill="#868e96"/>
<circle cx="638.5" cy="325.6" r="2.4" fill="#868e96"/>
<circle cx="638.5" cy="291.6" r="2.4" fill="#868e96"/>
<circle cx="638.5" cy="257.6" r="2.4" fill="#868e96"/>
<circle cx="638.5" cy="223.6" r="2.4" fill="#868e96"/>
<circle cx="638.5" cy="189.6" r="2.4" fill="#868e96"/>
<circle cx="68.0" cy="427.6" r="2.4" fill="#868e96"/>
<circle cx="102.0" cy="427.6" r="2.4" fill="#868e96"/>
<circle cx="68.0" cy="461.6" r="2.4" fill="#868e96"/>
<circle cx="102.0" cy="461.6" r="2.4" fill="#868e96"/>
<circle cx="68.0" cy="495.6" r="2.4" fill="#868e96"/>
<circle cx="102.0" cy="495.6" r="2.4" fill="#868e96"/>
<circle cx="68.0" cy="529.6" r="2.4" fill="#868e96"/>
<circle cx="102.0" cy="529.6" r="2.4" fill="#868e96"/>
<circle cx="68.0" cy="563.6" r="2.4" fill="#868e96"/>
<circle cx="102.0" cy="563.6" r="2.4" fill="#868e96"/>
<circle cx="68.0" cy="597.6" r="2.4" fill="#868e96"/>
<circle cx="102.0" cy="597.6" r="2.4" fill="#868e96"/>
<circle cx="68.0" cy="631.6" r="2.4" fill="#868e96"/>
<circle cx="102.0" cy="631.6" r="2.4" fill="#868e96"/>
<circle cx="68.0" cy="665.6" r="2.4" fill="#868e96"/>
<circle cx="102.0" cy="665.6" r="2.4" fill="#868e96"/>
<circle cx="297.5" cy="113.1" r="2.4" fill="#868e96"/>
<circle cx="331.5" cy="113.1" r="2.4" fill="#868e96"/>
<circle cx="365.5" cy="113.1" r="2.4" fill="#868e96"/>
<circle cx="102.0" cy="380.0" r="2.4" fill="#868e96"/>
<circle cx="326.4" cy="414.0" r="2.4" fill="#868e96"/>
<circle cx="326.4" cy="645.2" r="2.4" fill="#868e96"/>
<circle cx="115.6" cy="414.0" r="2.4" fill="#868e96"/>
<circle cx="54.4" cy="278.0" r="2.4" fill="#868e96"/>
<circle cx="312.8" cy="692.8" r="2.4" fill="#868e96"/>
<circle cx="312.8" cy="665.6" r="2.4" fill="#868e96"/>
<circle cx="340.0" cy="407.2" r="2.4" fill="#868e96"/>
<circle cx="340.0" cy="373.2" r="2.4" fill="#868e96"/>
<circle cx="40.8" cy="577.2" r="2.4" fill="#868e96"/>
<circle cx="319.6" cy="125.0" r="2.4" fill="#868e96"/>
</svg>