<svg xmlns="http://www.w3.org/2000/svg" width="937" height="856" viewBox="0 0 937 856">
<rect width="937" height="856" fill="#0d1117"/>
<rect x="0" y="0" width="937" height="856" fill="none" stroke="#30363d" stroke-width="2"/>
<line x1="299.2" y1="427.6" x2="108.8" y2="427.6" stroke="#4dabf7" stroke-width="2.2" opacity="0.9" />
<line x1="108.8" y1="431.0" x2="108.8" y2="465.0" stroke="#4dabf7" stroke-width="2.2" opacity="0.9" />
<line x1="105.4" y1="465.0" x2="105.4" y2="468.4" stroke="#4dabf7" stroke-width="2.2" opacity="0.9" />
<line x1="102.0" y1="468.4" x2="102.0" y2="495.6" stroke="#4dabf7" stroke-width="2.2" opacity="0.9" />
<line x1="299.2" y1="393.6" x2="74.8" y2="393.6" stroke="#4dabf7" stroke-width="2.2" opacity="0.9" />
<line x1="74.8" y1="397.0" x2="74.8" y2="499.0" stroke="#4dabf7" stroke-width="2.2" opacity="0.9" />
<line x1="71.4" y1="499.0" x2="71.4" y2="502.4" stroke="#4dabf7" stroke-width="2.2" opacity="0.9" />
<line x1="68.0" y1="502.4" x2="68.0" y2="529.6" stroke="#4dabf7" stroke-width="2.2" opacity="0.9" />
<line x1="299.2" y1="359.6" x2="74.8" y2="359.6" stroke="#ffa94d" stroke-width="2.2" opacity="0.9" stroke-dasharray="7,4"/>
<line x1="74.8" y1="363.0" x2="74.8" y2="465.0" stroke="#ffa94d" stroke-width="2.2" opacity="0.9" stroke-dasharray="7,4"/>
<line x1="71.4" y1="465.0" x2="71.4" y2="468.4" stroke="#ffa94d" stroke-width="2.2" opacity="0.9" stroke-dasharray="7,4"/>
<line x1="68.0" y1="468.4" x2="68.0" y2="495.6" stroke="#ffa94d" stroke-width="2.2" opacity="0.9" stroke-dasharray="7,4"/>
<line x1="299.2" y1="325.6" x2="102.0" y2="325.6" stroke="#4dabf7" stroke-width="2.2" opacity="0.9" />
<line x1="102.0" y1="329.0" x2="102.0" y2="386.8" stroke="#4dabf7" stroke-width="2.2" opacity="0.9" />
<line x1="102.0" y1="386.8" x2="102.0" y2="427.6" stroke="#ffa94d" stroke-width="2.2" opacity="0.9" stroke-dasharray="7,4"/>
<line x1="299.2" y1="291.6" x2="61.2" y2="291.6" stroke="#4dabf7" stroke-width="2.2" opacity="0.9" />
<line x1="61.2" y1="295.0" x2="61.2" y2="431.0" stroke="#4dabf7" stroke-width="2.2" opacity="0.9" />
<line x1="64.6" y1="431.0" x2="64.6" y2="434.4" stroke="#4dabf7" stroke-width="2.2" opacity="0.9" />
<line x1="68.0" y1="434.4" x2="68.0" y2="461.6" stroke="#4dabf7" stroke-width="2.2" opacity="0.9" />
<line x1="299.2" y1="257.6" x2="68.0" y2="257.6" stroke="#ffa94d" stroke-width="2.2" opacity="0.9" stroke-dasharray="7,4"/>
<line x1="68.0" y1="261.0" x2="68.0" y2="427.6" stroke="#ffa94d" stroke-width="2.2" opacity="0.9" stroke-dasharray="7,4"/>
<line x1="639.2" y1="427.6" x2="306.0" y2="427.6" stroke="#4dabf7" stroke-width="2.2" opacity="0.9" />
<line x1="306.0" y1="431.0" x2="302.6" y2="431.0" stroke="#4dabf7" stroke-width="2.2" opacity="0.9" />
<line x1="302.6" y1="434.4" x2="115.6" y2="434.4" stroke="#4dabf7" stroke-width="2.2" opacity="0.9" />
<line x1="115.6" y1="437.8" x2="115.6" y2="468.4" stroke="#4dabf7" stroke-width="2.2" opacity="0.9" />
<line x1="112.2" y1="468.4" x2="112.2" y2="471.8" stroke="#4dabf7" stroke-width="2.2" opacity="0.9" />
<line x1="108.8" y1="471.8" x2="108.8" y2="601.0" stroke="#4dabf7" stroke-width="2.2" opacity="0.9" />
<line x1="105.4" y1="601.0" x2="105.4" y2="604.4" stroke="#4dabf7" stroke-width="2.2" opacity="0.9" />
<line x1="102.0" y1="604.4" x2="102.0" y2="631.6" stroke="#4dabf7" stroke-width="2.2" opacity="0.9" />
<line x1="639.2" y1="393.6" x2="306.0" y2="393.6" stroke="#4dabf7" stroke-width="2.2" opacity="0.9" />
<line x1="306.0" y1="397.0" x2="302.6" y2="397.0" stroke="#4dabf7" stroke-width="2.2" opacity="0.9" />
<line x1="302.6" y1="400.4" x2="81.6" y2="400.4" stroke="#4dabf7" stroke-width="2.2" opacity="0.9" />
<line x1="81.6" y1="403.8" x2="81.6" y2="502.4" stroke="#4dabf7" stroke-width="2.2" opacity="0.9" />
<line x1="78.2" y1="502.4" x2="78.2" y2="505.8" stroke="#4dabf7" stroke-width="2.2" opacity="0.9" />
<line x1="74.8" y1="505.8" x2="74.8" y2="635.0" stroke="#4dabf7" stroke-width="2.2" opacity="0.9" />
<line x1="71.4" y1="635.0" x2="71.4" y2="638.4" stroke="#4dabf7" stroke-width="2.2" opacity="0.9" />
<line x1="68.0" y1="638.4" x2="68.0" y2="665.6" stroke="#4dabf7" stroke-width="2.2" opacity="0.9" />
<line x1="639.2" y1="359.6" x2="306.0" y2="359.6" stroke="#ffa94d" stroke-width="2.2" opacity="0.9" stroke-dasharray="7,4"/>
<line x1="306.0" y1="363.0" x2="302.6" y2="363.0" stroke="#ffa94d" stroke-width="2.2" opacity="0.9" stroke-dasharray="7,4"/>
<line x1="302.6" y1="366.4" x2="81.6" y2="366.4" stroke="#ffa94d" stroke-width="2.2" opacity="0.9" stroke-dasharray="7,4"/>
<line x1="81.6" y1="369.8" x2="81.6" y2="468.4" stroke="#ffa94d" stroke-width="2.2" opacity="0.9" stroke-dasharray="7,4"/>
<line x1="78.2" y1="468.4" x2="78.2" y2="471.8" stroke="#ffa94d" stroke-width="2.2" opacity="0.9" stroke-dasharray="7,4"/>
<line x1="74.8" y1="471.8" x2="74.8" y2="601.0" stroke="#ffa94d" stroke-width="2.2" opacity="0.9" stroke-dasharray="7,4"/>
<line x1="71.4" y1="601.0" x2="71.4" y2="604.4" stroke="#ffa94d" stroke-width="2.2" opacity="0.9" stroke-dasharray="7,4"/>
<line x1="68.0" y1="604.4" x2="68.0" y2="631.6" stroke="#ffa94d" stroke-width="2.2" opacity="0.9" stroke-dasharray="7,4"/>
<line x1="639.2" y1="325.6" x2="306.0" y2="325.6" stroke="#4dabf7" stroke-width="2.2" opacity="0.9" />
<line x1="306.0" y1="329.0" x2="302.6" y2="329.0" stroke="#4dabf7" stroke-width="2.2" opacity="0.9" />
<line x1="302.6" y1="332.4" x2="108.8" y2="332.4" stroke="#4dabf7" stroke-width="2.2" opacity="0.9" />
<line x1="108.8" y1="335.8" x2="108.8" y2="386.8" stroke="#4dabf7" stroke-width="2.2" opacity="0.9" />
<line x1="108.8" y1="386.8" x2="108.8" y2="533.0" stroke="#ffa94d" stroke-width="2.2" opacity="0.9" stroke-dasharray="7,4"/>
<line x1="105.4" y1="533.0" x2="105.4" y2="536.4" stroke="#ffa94d" stroke-width="2.2" opacity="0.9" stroke-dasharray="7,4"/>
<line x1="102.0" y1="536.4" x2="102.0" y2="563.6" stroke="#ffa94d" stroke-width="2.2" opacity="0.9" stroke-dasharray="7,4"/>
<line x1="639.2" y1="291.6" x2="306.0" y2="291.6" stroke="#4dabf7" stroke-width="2.2" opacity="0.9" />
<line x1="306.0" y1="288.2" x2="302.6" y2="288.2" stroke="#4dabf7" stroke-width="2.2" opacity="0.9" />
<line x1="302.6" y1="284.8" x2="61.2" y2="284.8" stroke="#4dabf7" stroke-width="2.2" opacity="0.9" />
<line x1="61.2" y1="284.8" x2="61.2" y2="567.0" stroke="#ffa94d" stroke-width="2.2" opacity="0.9" stroke-dasharray="7,4"/>
<line x1="64.6" y1="567.0" x2="64.6" y2="570.4" stroke="#ffa94d" stroke-width="2.2" opacity="0.9" stroke-dasharray="7,4"/>
<line x1="68.0" y1="570.4" x2="68.0" y2="597.6" stroke="#ffa94d" stroke-width="2.2" opacity="0.9" stroke-dasharray="7,4"/>
<line x1="639.2" y1="257.6" x2="306.0" y2="257.6" stroke="#4dabf7" stroke-width="2.2" opacity="0.9" />
<line x1="306.0" y1="261.0" x2="302.6" y2="261.0" stroke="#4dabf7" stroke-width="2.2" opacity="0.9" />
<line x1="302.6" y1="264.4" x2="54.4" y2="264.4" stroke="#4dabf7" stroke-width="2.2" opacity="0.9" />
<line x1="54.4" y1="267.8" x2="54.4" y2="434.4" stroke="#4dabf7" stroke-width="2.2" opacity="0.9" />
<line x1="57.8" y1="434.4" x2="57.8" y2="437.8" stroke="#4dabf7" stroke-width="2.2" opacity="0.9" />
<line x1="61.2" y1="437.8" x2="61.2" y2="533.0" stroke="#4dabf7" stroke-width="2.2" opacity="0.9" />
<line x1="64.6" y1="533.0" x2="64.6" y2="536.4" stroke="#4dabf7" stroke-width="2.2" opacity="0.9" />
<line x1="68.0" y1="536.4" x2="68.0" y2="563.6" stroke="#4dabf7" stroke-width="2.2" opacity="0.9" />
<line x1="326.4" y1="754.0" x2="353.6" y2="754.0" stroke="#4dabf7" stroke-width="2.2" opacity="0.9" />
<line x1="353.6" y1="750.6" x2="357.0" y2="750.6" stroke="#4dabf7" stroke-width="2.2" opacity="0.9" />
<line x1="357.0" y1="747.2" x2="639.2" y2="747.2" stroke="#4dabf7" stroke-width="2.2" opacity="0.9" />
<line x1="639.2" y1="743.8" x2="639.2" y2="635.0" stroke="#4dabf7" stroke-width="2.2" opacity="0.9" />
<line x1="224.4" y1="754.0" x2="251.6" y2="754.0" stroke="#4dabf7" stroke-width="2.2" opacity="0.9" />
<line x1="251.6" y1="750.6" x2="255.0" y2="750.6" stroke="#4dabf7" stroke-width="2.2" opacity="0.9" />
<line x1="255.0" y1="747.2" x2="350.2" y2="747.2" stroke="#4dabf7" stroke-width="2.2" opacity="0.9" />
<line x1="350.2" y1="743.8" x2="353.6" y2="743.8" stroke="#4dabf7" stroke-width="2.2" opacity="0.9" />
<line x1="353.6" y1="740.4" x2="632.4" y2="740.4" stroke="#4dabf7" stroke-width="2.2" opacity="0.9" />
<line x1="632.4" y1="737.0" x2="632.4" y2="628.2" stroke="#4dabf7" stroke-width="2.2" opacity="0.9" />
<line x1="635.8" y1="628.2" x2="635.8" y2="624.8" stroke="#4dabf7" stroke-width="2.2" opacity="0.9" />
<line x1="639.2" y1="624.8" x2="639.2" y2="533.0" stroke="#4dabf7" stroke-width="2.2" opacity="0.9" />
<line x1="360.4" y1="754.0" x2="360.4" y2="757.4" stroke="#ff6b6b" stroke-width="4.0" opacity="0.9" />
<line x1="357.0" y1="757.4" x2="357.0" y2="760.8" stroke="#ff6b6b" stroke-width="4.0" opacity="0.9" />
<line x1="306.0" y1="760.8" x2="306.0" y2="754.0" stroke="#ff6b6b" stroke-width="4.0" opacity="0.9" />
<line x1="353.6" y1="760.8" x2="306.0" y2="760.8" stroke="#ff6b6b" stroke-width="4.0" opacity="0.9" />
<line x1="306.0" y1="760.8" x2="258.4" y2="760.8" stroke="#ff6b6b" stroke-width="4.0" opacity="0.9" />
<line x1="306.0" y1="754.0" x2="306.0" y2="369.8" stroke="#ff6b6b" stroke-width="4.0" opacity="0.9" />
<line x1="306.0" y1="369.8" x2="306.0" y2="335.8" stroke="#ff6b6b" stroke-width="4.0" opacity="0.9" />
<line x1="306.0" y1="335.8" x2="306.0" y2="220.2" stroke="#ff6b6b" stroke-width="4.0" opacity="0.9" />
<line x1="302.6" y1="220.2" x2="302.6" y2="216.8" stroke="#ff6b6b" stroke-width="4.0" opacity="0.9" />
<line x1="299.2" y1="216.8" x2="299.2" y2="193.0" stroke="#ff6b6b" stroke-width="4.0" opacity="0.9" />
<line x1="299.2" y1="189.6" x2="333.2" y2="189.6" stroke="#ff6b6b" stroke-width="4.0" opacity="0.9" />
<line x1="333.2" y1="186.2" x2="333.2" y2="114.8" stroke="#ff6b6b" stroke-width="4.0" opacity="0.9" />
<line x1="102.0" y1="461.6" x2="95.2" y2="461.6" stroke="#ff6b6b" stroke-width="4.0" opacity="0.9" />
<line x1="95.2" y1="465.0" x2="95.2" y2="499.0" stroke="#ff6b6b" stroke-width="4.0" opacity="0.9" />
<line x1="98.6" y1="499.0" x2="98.6" y2="502.4" stroke="#ff6b6b" stroke-width="4.0" opacity="0.9" />
<line x1="102.0" y1="502.4" x2="102.0" y2="529.6" stroke="#ff6b6b" stroke-width="4.0" opacity="0.9" />
<line x1="102.0" y1="529.6" x2="95.2" y2="529.6" stroke="#ff6b6b" stroke-width="4.0" opacity="0.9" />
<line x1="95.2" y1="533.0" x2="95.2" y2="567.0" stroke="#ff6b6b" stroke-width="4.0" opacity="0.9" />
<line x1="98.6" y1="567.0" x2="98.6" y2="570.4" stroke="#ff6b6b" stroke-width="4.0" opacity="0.9" />
<line x1="102.0" y1="570.4" x2="102.0" y2="597.6" stroke="#ff6b6b" stroke-width="4.0" opacity="0.9" />
<line x1="102.0" y1="597.6" x2="95.2" y2="597.6" stroke="#ff6b6b" stroke-width="4.0" opacity="0.9" />
<line x1="95.2" y1="601.0" x2="95.2" y2="635.0" stroke="#ff6b6b" stroke-width="4.0" opacity="0.9" />
<line x1="98.6" y1="635.0" x2="98.6" y2="638.4" stroke="#ff6b6b" stroke-width="4.0" opacity="0.9" />
<line x1="102.0" y1="638.4" x2="102.0" y2="665.6" stroke="#ff6b6b" stroke-width="4.0" opacity="0.9" />
<line x1="95.2" y1="461.6" x2="95.2" y2="424.2" stroke="#ff6b6b" stroke-width="4.0" opacity="0.9" />
<line x1="98.6" y1="424.2" x2="98.6" y2="420.8" stroke="#ff6b6b" stroke-width="4.0" opacity="0.9" />
<line x1="102.0" y1="420.8" x2="312.8" y2="420.8" stroke="#ff6b6b" stroke-width="4.0" opacity="0.9" />
<line x1="312.8" y1="417.4" x2="312.8" y2="400.4" stroke="#ff6b6b" stroke-width="4.0" opacity="0.9" />
<line x1="312.8" y1="400.4" x2="312.8" y2="366.4" stroke="#ff6b6b" stroke-width="4.0" opacity="0.9" />
<line x1="312.8" y1="366.4" x2="312.8" y2="332.4" stroke="#ff6b6b" stroke-width="4.0" opacity="0.9" />
<line x1="312.8" y1="332.4" x2="312.8" y2="216.8" stroke="#ff6b6b" stroke-width="4.0" opacity="0.9" />
<line x1="309.4" y1="216.8" x2="309.4" y2="213.4" stroke="#ff6b6b" stroke-width="4.0" opacity="0.9" />
<line x1="306.0" y1="213.4" x2="306.0" y2="196.4" stroke="#ff6b6b" stroke-width="4.0" opacity="0.9" />
<line x1="306.0" y1="196.4" x2="306.0" y2="186.2" stroke="#ff6b6b" stroke-width="4.0" opacity="0.9" />
<line x1="302.6" y1="186.2" x2="302.6" y2="182.8" stroke="#ff6b6b" stroke-width="4.0" opacity="0.9" />
<line x1="299.2" y1="118.2" x2="367.2" y2="118.2" stroke="#ff6b6b" stroke-width="4.0" opacity="0.9" />
<line x1="299.2" y1="182.8" x2="299.2" y2="118.2" stroke="#ff6b6b" stroke-width="4.0" opacity="0.9" />
<line x1="299.2" y1="118.2" x2="299.2" y2="114.8" stroke="#ff6b6b" stroke-width="4.0" opacity="0.9" />
<line x1="180.2" y1="46.8" x2="319.6" y2="46.8" stroke="#51cf66" stroke-width="4.0" opacity="0.9" />
<line x1="319.6" y1="111.4" x2="319.6" y2="182.8" stroke="#51cf66" stroke-width="4.0" opacity="0.9" />
<line x1="319.6" y1="250.8" x2="319.6" y2="335.8" stroke="#51cf66" stroke-width="4.0" opacity="0.9" />
<line x1="316.2" y1="335.8" x2="316.2" y2="339.2" stroke="#51cf66" stroke-width="4.0" opacity="0.9" />
<line x1="312.8" y1="339.2" x2="309.4" y2="339.2" stroke="#51cf66" stroke-width="4.0" opacity="0.9" />
<line x1="309.4" y1="342.6" x2="180.2" y2="342.6" stroke="#51cf66" stroke-width="4.0" opacity="0.9" />
<line x1="180.2" y1="346.0" x2="180.2" y2="352.8" stroke="#51cf66" stroke-width="4.0" opacity="0.9" />
<line x1="180.2" y1="352.8" x2="180.2" y2="386.8" stroke="#51cf66" stroke-width="4.0" opacity="0.9" />
<line x1="180.2" y1="386.8" x2="180.2" y2="805.0" stroke="#51cf66" stroke-width="4.0" opacity="0.9" />
<line x1="319.6" y1="104.6" x2="265.2" y2="104.6" stroke="#51cf66" stroke-width="4.0" opacity="0.9" />
<line x1="319.6" y1="46.8" x2="319.6" y2="104.6" stroke="#51cf66" stroke-width="4.0" opacity="0.9" />
<line x1="319.6" y1="104.6" x2="319.6" y2="111.4" stroke="#51cf66" stroke-width="4.0" opacity="0.9" />
<line x1="394.4" y1="808.4" x2="394.4" y2="757.4" stroke="#51cf66" stroke-width="4.0" opacity="0.9" />
<line x1="394.4" y1="808.4" x2="805.8" y2="808.4" stroke="#51cf66" stroke-width="4.0" opacity="0.9" />
<line x1="292.4" y1="808.4" x2="292.4" y2="757.4" stroke="#51cf66" stroke-width="4.0" opacity="0.9" />
<line x1="180.2" y1="808.4" x2="292.4" y2="808.4" stroke="#51cf66" stroke-width="4.0" opacity="0.9" />
<line x1="292.4" y1="808.4" x2="394.4" y2="808.4" stroke="#51cf66" stroke-width="4.0" opacity="0.9" />
<line x1="319.6" y1="223.6" x2="298.5" y2="223.6" stroke="#51cf66" stroke-width="4.0" opacity="0.9" />
<line x1="319.6" y1="182.8" x2="319.6" y2="223.6" stroke="#51cf66" stroke-width="4.0" opacity="0.9" />
<line x1="319.6" y1="223.6" x2="319.6" y2="250.8" stroke="#51cf66" stroke-width="4.0" opacity="0.9" />
<line x1="639.2" y1="46.8" x2="639.2" y2="220.2" stroke="#51cf66" stroke-width="4.0" opacity="0.9" />
<line x1="319.6" y1="46.8" x2="639.2" y2="46.8" stroke="#51cf66" stroke-width="4.0" opacity="0.9" />
<line x1="639.2" y1="46.8" x2="805.8" y2="46.8" stroke="#51cf66" stroke-width="4.0" opacity="0.9" />
<circle cx="180.5" cy="46.1" r="2.4" fill="#868e96"/>
<circle cx="809.9" cy="46.1" r="2.4" fill="#868e96"/>
<circle cx="180.5" cy="809.1" r="2.4" fill="#868e96"/>
<circle cx="809.9" cy="809.1" r="2.4" fill="#868e96"/>
<circle cx="869.0" cy="427.6" r="2.4" fill="#868e96"/>
<circle cx="869.0" cy="461.6" r="2.4" fill="#868e96"/>
<circle cx="869.0" cy="495.6" r="2.4" fill="#868e96"/>
<circle cx="869.0" cy="529.6" r="2.4" fill="#868e96"/>
<circle cx="869.0" cy="563.6" r="2.4" fill="#868e96"/>
<circle cx="869.0" cy="597.6" r="2.4" fill="#868e96"/>
<circle cx="869.0" cy="631.6" r="2.4" fill="#868e96"/>
<circle cx="869.0" cy="665.6" r="2.4" fill="#868e96"/>
<circle cx="263.5" cy="113.1" r="2.4" fill="#868e96"/>
<circle cx="229.5" cy="113.1" r="2.4" fill="#868e96"/>
<circle cx="392.7" cy="755.7" r="2.4" fill="#868e96"/>
<circle cx="358.7" cy="755.7" r="2.4" fill="#868e96"/>
<circle cx="324.7" cy="755.7" r="2.4" fill="#868e96"/>
<circle cx="290.7" cy="755.7" r="2.4" fill="#868e96"/>
<circle cx="256.7" cy="755.7" r="2.4" fill="#868e96"/>
<circle cx="222.7" cy="755.7" r="2.4" fill="#868e96"/>
<circle cx="298.5" cy="665.6" r="2.4" fill="#868e96"/>
<circle cx="298.5" cy="631.6" r="2.4" fill="#868e96"/>
<circle cx="298.5" cy="597.6" r="2.4" fill="#868e96"/>
<circle cx="298.5" cy="563.6" r="2.4" fill="#868e96"/>
<circle cx="298.5" cy="529.6" r="2.4" fill="#868e96"/>
<circle cx="298.5" cy="495.6" r="2.4" fill="#868e96"/>
<circle cx="298.5" cy="461.6" r="2.4" fill="#868e96"/>
<circle cx="298.5" cy="427.6" r="2.4" fill="#868e96"/>
<circle cx="298.5" cy="393.6" r="2.4" fill="#868e96"/>
<circle cx="298.5" cy="359.6" r="2.4" fill="#868e96"/>
<circle cx="298.5" cy="325.6" r="2.4" fill="#868e96"/>
<circle cx="298.5" cy="291.6" r="2.4" fill="#868e96"/>
<circle cx="298.5" cy="257.6" r="2.4" fill="#868e96"/>
<circle cx="298.5" cy="223.6" r="2.4" fill="#868e96"/>
<circle cx="298.5" cy="189.6" r="2.4" fill="#868e96"/>
<circle cx="638.5" cy="665.6" r="2.4" fill="#868e96"/>
<circle cx="638.5" cy="631.6" r="2.4" fill="#868e96"/>
<circle cx="638.5" cy="597.6" r="2.4" fill="#868e96"/>
<circle cx="638.5" cy="563.6" r="2.4" fill="#868e96"/>
<circle cx="638.5" cy="529.6" r="2.4" fill="#868e96"/>
<circle cx="638.5" cy="495.6" r="2.4" fill="#868e96"/>
<circle cx="638.5" cy="461.6" r="2.4" fill="#868e96"/>
<circle cx="638.5" cy="427.6" r="2.4" fill="#868e96"/>
<circle cx="638.5" cy="393.6" r="2.4" fill="#868e96"/>
<circle cx="638.5" cy="359.6" r="2.4" fill="#868e96"/>
<circle cx="638.5" cy="325.6" r="2.4" fill="#868e96"/>
<circle cx="638.5" cy="291.6" r="2.4" fill="#868e96"/>
<circle cx="638.5" cy="257.6" r="2.4" fill="#868e96"/>
<circle cx="638.5" cy="223.6" r="2.4" fill="#868e96"/>
<circle cx="638.5" cy="189.6" r="2.4" fill="#868e96"/>
<circle cx="68.0" cy="427.6" r="2.4" fill="#868e96"/>
<circle cx="102.0" cy="427.6" r="2.4" fill="#868e96"/>
<circle cx="68.0" cy="461.6" r="2.4" fill="#868e96"/>
<circle cx="102.0" cy="461.6" r="2.4" fill="#868e96"/>
<circle cx="68.0" cy="495.6" r="2.4" fill="#868e96"/>
<circle cx="102.0" cy="495.6" r="2.4" fill="#868e96"/>
<circle cx="68.0" cy="529.6" r="2.4" fill="#868e96"/>
<circle cx="102.0" cy="529.6" r="2.4" fill="#868e96"/>
<circle cx="68.0" cy="563.6" r="2.4" fill="#868e96"/>
<circle cx="102.0" cy="563.6" r="2.4" fill="#868e96"/>
<circle cx="68.0" cy="597.6" r="2.4" fill="#868e96"/>
<circle cx="102.0" cy="597.6" r="2.4" fill="#868e96"/>
<circle cx="68.0" cy="631.6" r="2.4" fill="#868e96"/>
<circle cx="102.0" cy="631.6" r="2.4" fill="#868e96"/>
<circle cx="68.0" cy="665.6" r="2.4" fill="#868e96"/>
<circle cx="102.0" cy="665.6" r="2.4" fill="#868e96"/>
<circle cx="297.5" cy="113.1" r="2.4" fill="#868e96"/>
<circle cx="331.5" cy="113.1" r="2.4" fill="#868e96"/>
<circle cx="365.5" cy="113.1" r="2.4" fill="#868e96"/>
<circle cx="102.0" cy="386.8" r="2.4" fill="#868e96"/>
<circle cx="108.8" cy="386.8" r="2.4" fill="#868e96"/>
<circle cx="61.2" cy="284.8" r="2.4" fill="#868e96"/>
<circle cx="306.0" cy="754.0" r="2.4" fill="#868e96"/>
<circle cx="306.0" cy="369.8" r="2.4" fill="#868e96"/>
<circle cx="306.0" cy="335.8" r="2.4" fill="#868e96"/>
<circle cx="312.8" cy="400.4" r="2.4" fill="#868e96"/>
<circle cx="312.8" cy="366.4" r="2.4" fill="#868e96"/>
<circle cx="312.8" cy="332.4" r="2.4" fill="#868e96"/>
<circle cx="306.0" cy="196.4" r="2.4" fill="#868e96"/>
<circle cx="319.6" cy="111.4" r="2.4" fill="#868e96"/>
<circle cx="319.6" cy="182.8" r="2.4" fill="#868e96"/>
<circle cx="319.6" cy="250.8" r="2.4" fill="#868e96"/>
<circle cx="180.2" cy="352.8" r="2.4" fill="#868e96"/>
<circle cx="180.2" cy="386.8" r="2.4" fill="#868e96"/>
</svg>