<svg xmlns="http://www.w3.org/2000/svg" width="826" height="756" viewBox="0 0 826 756">
<rect width="826" height="756" fill="#0d1117"/>
<rect x="0" y="0" width="826" height="756" fill="none" stroke="#30363d" stroke-width="2"/>
<circle cx="159.3" cy="41.4" r="3" fill="#8b949e"/>
<circle cx="714.6" cy="41.4" r="3" fill="#8b949e"/>
<circle cx="159.3" cy="714.6" r="3" fill="#8b949e"/>
<circle cx="714.6" cy="714.6" r="3" fill="#8b949e"/>
<circle cx="766.8" cy="378.0" r="3" fill="#8b949e"/>
<circle cx="766.8" cy="408.0" r="3" fill="#8b949e"/>
<circle cx="766.8" cy="438.0" r="3" fill="#8b949e"/>
<circle cx="766.8" cy="468.0" r="3" fill="#8b949e"/>
<circle cx="766.8" cy="498.0" r="3" fill="#8b949e"/>
<circle cx="766.8" cy="528.0" r="3" fill="#8b949e"/>
<circle cx="766.8" cy="558.0" r="3" fill="#8b949e"/>
<circle cx="766.8" cy="588.0" r="3" fill="#8b949e"/>
<circle cx="232.5" cy="100.5" r="3" fill="#8b949e"/>
<circle cx="202.5" cy="100.5" r="3" fill="#8b949e"/>
<circle cx="346.5" cy="667.5" r="3" fill="#8b949e"/>
<circle cx="316.5" cy="667.5" r="3" fill="#8b949e"/>
<circle cx="286.5" cy="667.5" r="3" fill="#8b949e"/>
<circle cx="256.5" cy="667.5" r="3" fill="#8b949e"/>
<circle cx="226.5" cy="667.5" r="3" fill="#8b949e"/>
<circle cx="196.5" cy="667.5" r="3" fill="#8b949e"/>
<circle cx="60.0" cy="378.0" r="3" fill="#8b949e"/>
<circle cx="90.0" cy="378.0" r="3" fill="#8b949e"/>
<circle cx="60.0" cy="408.0" r="3" fill="#8b949e"/>
<circle cx="90.0" cy="408.0" r="3" fill="#8b949e"/>
<circle cx="60.0" cy="438.0" r="3" fill="#8b949e"/>
<circle cx="90.0" cy="438.0" r="3" fill="#8b949e"/>
<circle cx="60.0" cy="468.0" r="3" fill="#8b949e"/>
<circle cx="90.0" cy="468.0" r="3" fill="#8b949e"/>
<circle cx="60.0" cy="498.0" r="3" fill="#8b949e"/>
<circle cx="90.0" cy="498.0" r="3" fill="#8b949e"/>
<circle cx="60.0" cy="528.0" r="3" fill="#8b949e"/>
<circle cx="90.0" cy="528.0" r="3" fill="#8b949e"/>
<circle cx="60.0" cy="558.0" r="3" fill="#8b949e"/>
<circle cx="90.0" cy="558.0" r="3" fill="#8b949e"/>
<circle cx="60.0" cy="588.0" r="3" fill="#8b949e"/>
<circle cx="90.0" cy="588.0" r="3" fill="#8b949e"/>
<circle cx="262.5" cy="100.5" r="3" fill="#8b949e"/>
<circle cx="292.5" cy="100.5" r="3" fill="#8b949e"/>
<circle cx="322.5" cy="100.5" r="3" fill="#8b949e"/>
<circle cx="84.0" cy="528.0" r="3" fill="#8b949e"/>
<circle cx="87.0" cy="408.0" r="3" fill="#8b949e"/>
<circle cx="69.0" cy="525.0" r="3" fill="#8b949e"/>
<circle cx="57.0" cy="567.0" r="3" fill="#8b949e"/>
<circle cx="63.0" cy="567.0" r="3" fill="#8b949e"/>
<circle cx="333.0" cy="537.0" r="3" fill="#8b949e"/>
<circle cx="333.0" cy="531.0" r="3" fill="#8b949e"/>
<circle cx="303.0" cy="531.0" r="3" fill="#8b949e"/>
<circle cx="396.0" cy="534.0" r="3" fill="#8b949e"/>
<circle cx="396.0" cy="234.0" r="3" fill="#8b949e"/>
<circle cx="81.0" cy="519.0" r="3" fill="#8b949e"/>
<circle cx="384.0" cy="516.0" r="3" fill="#8b949e"/>
<circle cx="402.0" cy="522.0" r="3" fill="#8b949e"/>
<circle cx="339.0" cy="588.0" r="3" fill="#8b949e"/>
<circle cx="258.0" cy="678.0" r="3" fill="#8b949e"/>
<circle cx="393.0" cy="663.0" r="3" fill="#8b949e"/>
<circle cx="393.0" cy="543.0" r="3" fill="#8b949e"/>
<circle cx="393.0" cy="537.0" r="3" fill="#8b949e"/>
<circle cx="393.0" cy="531.0" r="3" fill="#8b949e"/>
<circle cx="336.0" cy="531.0" r="3" fill="#8b949e"/>
<circle cx="623.4" cy="528.0" r="3.2" fill="#58a6ff"/>
<circle cx="593.4" cy="528.0" r="3.2" fill="#58a6ff"/>
<circle cx="563.4" cy="528.0" r="3.2" fill="#58a6ff"/>
<circle cx="533.4" cy="528.0" r="3.2" fill="#58a6ff"/>
<circle cx="503.4" cy="528.0" r="3.2" fill="#58a6ff"/>
<circle cx="473.4" cy="528.0" r="3.2" fill="#58a6ff"/>
<circle cx="443.4" cy="528.0" r="3.2" fill="#58a6ff"/>
<circle cx="413.4" cy="528.0" r="3.2" fill="#58a6ff"/>
<circle cx="383.4" cy="528.0" r="3.2" fill="#58a6ff"/>
<circle cx="353.4" cy="528.0" r="3.2" fill="#58a6ff"/>
<circle cx="323.4" cy="528.0" r="3.2" fill="#58a6ff"/>
<circle cx="293.4" cy="528.0" r="3.2" fill="#58a6ff"/>
<circle cx="263.4" cy="528.0" r="3.2" fill="#58a6ff"/>
<circle cx="233.4" cy="528.0" r="3.2" fill="#58a6ff"/>
<circle cx="203.4" cy="528.0" r="3.2" fill="#58a6ff"/>
<circle cx="623.4" cy="228.0" r="3.2" fill="#58a6ff"/>
<circle cx="593.4" cy="228.0" r="3.2" fill="#58a6ff"/>
<circle cx="563.4" cy="228.0" r="3.2" fill="#58a6ff"/>
<circle cx="533.4" cy="228.0" r="3.2" fill="#58a6ff"/>
<circle cx="503.4" cy="228.0" r="3.2" fill="#58a6ff"/>
<circle cx="473.4" cy="228.0" r="3.2" fill="#58a6ff"/>
<circle cx="443.4" cy="228.0" r="3.2" fill="#58a6ff"/>
<circle cx="413.4" cy="228.0" r="3.2" fill="#58a6ff"/>
<circle cx="383.4" cy="228.0" r="3.2" fill="#58a6ff"/>
<circle cx="353.4" cy="228.0" r="3.2" fill="#58a6ff"/>
<circle cx="323.4" cy="228.0" r="3.2" fill="#58a6ff"/>
<circle cx="293.4" cy="228.0" r="3.2" fill="#58a6ff"/>
<circle cx="263.4" cy="228.0" r="3.2" fill="#58a6ff"/>
<circle cx="233.4" cy="228.0" r="3.2" fill="#58a6ff"/>
<circle cx="203.4" cy="228.0" r="3.2" fill="#58a6ff"/>
<circle cx="263.4" cy="588.0" r="3.6" fill="#f85149" stroke="#fff" stroke-width="0.5"/>
<circle cx="263.4" cy="558.0" r="3.6" fill="#f85149" stroke="#fff" stroke-width="0.5"/>
<circle cx="263.4" cy="528.0" r="3.6" fill="#f85149" stroke="#fff" stroke-width="0.5"/>
<circle cx="263.4" cy="498.0" r="3.6" fill="#f85149" stroke="#fff" stroke-width="0.5"/>
<circle cx="263.4" cy="468.0" r="3.6" fill="#f85149" stroke="#fff" stroke-width="0.5"/>
<circle cx="263.4" cy="438.0" r="3.6" fill="#f85149" stroke="#fff" stroke-width="0.5"/>
<circle cx="263.4" cy="408.0" r="3.6" fill="#f85149" stroke="#fff" stroke-width="0.5"/>
<circle cx="263.4" cy="378.0" r="3.6" fill="#f85149" stroke="#fff" stroke-width="0.5"/>
<circle cx="263.4" cy="348.0" r="3.6" fill="#f85149" stroke="#fff" stroke-width="0.5"/>
<circle cx="263.4" cy="318.0" r="3.6" fill="#f85149" stroke="#fff" stroke-width="0.5"/>
<circle cx="263.4" cy="288.0" r="3.6" fill="#f85149" stroke="#fff" stroke-width="0.5"/>
<circle cx="263.4" cy="258.0" r="3.6" fill="#f85149" stroke="#fff" stroke-width="0.5"/>
<circle cx="263.4" cy="228.0" r="3.6" fill="#f85149" stroke="#fff" stroke-width="0.5"/>
<circle cx="263.4" cy="198.0" r="3.6" fill="#f85149" stroke="#fff" stroke-width="0.5"/>
<circle cx="263.4" cy="168.0" r="3.6" fill="#f85149" stroke="#fff" stroke-width="0.5"/>
<circle cx="563.4" cy="588.0" r="3.6" fill="#f85149" stroke="#fff" stroke-width="0.5"/>
<circle cx="563.4" cy="558.0" r="3.6" fill="#f85149" stroke="#fff" stroke-width="0.5"/>
<circle cx="563.4" cy="528.0" r="3.6" fill="#f85149" stroke="#fff" stroke-width="0.5"/>
<circle cx="563.4" cy="498.0" r="3.6" fill="#f85149" stroke="#fff" stroke-width="0.5"/>
<circle cx="563.4" cy="468.0" r="3.6" fill="#f85149" stroke="#fff" stroke-width="0.5"/>
<circle cx="563.4" cy="438.0" r="3.6" fill="#f85149" stroke="#fff" stroke-width="0.5"/>
<circle cx="563.4" cy="408.0" r="3.6" fill="#f85149" stroke="#fff" stroke-width="0.5"/>
<circle cx="563.4" cy="378.0" r="3.6" fill="#f85149" stroke="#fff" stroke-width="0.5"/>
<circle cx="563.4" cy="348.0" r="3.6" fill="#f85149" stroke="#fff" stroke-width="0.5"/>
<circle cx="563.4" cy="318.0" r="3.6" fill="#f85149" stroke="#fff" stroke-width="0.5"/>
<circle cx="563.4" cy="288.0" r="3.6" fill="#f85149" stroke="#fff" stroke-width="0.5"/>
<circle cx="563.4" cy="258.0" r="3.6" fill="#f85149" stroke="#fff" stroke-width="0.5"/>
<circle cx="563.4" cy="228.0" r="3.6" fill="#f85149" stroke="#fff" stroke-width="0.5"/>
<circle cx="563.4" cy="198.0" r="3.6" fill="#f85149" stroke="#fff" stroke-width="0.5"/>
<circle cx="563.4" cy="168.0" r="3.6" fill="#f85149" stroke="#fff" stroke-width="0.5"/>
<circle cx="84.0" cy="528.0" r="2" fill="#6e40c9" opacity="0.6"/>
<circle cx="87.0" cy="408.0" r="2" fill="#6e40c9" opacity="0.6"/>
<circle cx="69.0" cy="525.0" r="2" fill="#6e40c9" opacity="0.6"/>
<circle cx="57.0" cy="567.0" r="2" fill="#6e40c9" opacity="0.6"/>
<circle cx="63.0" cy="567.0" r="2" fill="#6e40c9" opacity="0.6"/>
<circle cx="333.0" cy="537.0" r="2" fill="#6e40c9" opacity="0.6"/>
<circle cx="333.0" cy="531.0" r="2" fill="#6e40c9" opacity="0.6"/>
<circle cx="303.0" cy="531.0" r="2" fill="#6e40c9" opacity="0.6"/>
<circle cx="396.0" cy="534.0" r="2" fill="#6e40c9" opacity="0.6"/>
<circle cx="396.0" cy="234.0" r="2" fill="#6e40c9" opacity="0.6"/>
<circle cx="81.0" cy="519.0" r="2" fill="#6e40c9" opacity="0.6"/>
<circle cx="384.0" cy="516.0" r="2" fill="#6e40c9" opacity="0.6"/>
<circle cx="402.0" cy="522.0" r="2" fill="#6e40c9" opacity="0.6"/>
<circle cx="339.0" cy="588.0" r="2" fill="#6e40c9" opacity="0.6"/>
<circle cx="258.0" cy="678.0" r="2" fill="#6e40c9" opacity="0.6"/>
<circle cx="393.0" cy="663.0" r="2" fill="#6e40c9" opacity="0.6"/>
<circle cx="393.0" cy="543.0" r="2" fill="#6e40c9" opacity="0.6"/>
<circle cx="393.0" cy="537.0" r="2" fill="#6e40c9" opacity="0.6"/>
<circle cx="393.0" cy="531.0" r="2" fill="#6e40c9" opacity="0.6"/>
<circle cx="336.0" cy="531.0" r="2" fill="#6e40c9" opacity="0.6"/>
</svg>